<svg width="147" height="147" viewBox="0 0 147 147" fill="none" xmlns="http://www.w3.org/2000/svg">
<g filter="url(#filter0_d_45_2)">
<rect x="6" y="2" width="135" height="135" rx="14" fill="white"/>
<path d="M26.25 42.5C26.25 37.1294 28.3835 31.9787 32.1811 28.1811C35.9787 24.3835 41.1294 22.25 46.5 22.25H100.5C105.871 22.25 111.021 24.3835 114.819 28.1811C118.617 31.9787 120.75 37.1294 120.75 42.5V96.5C120.75 101.871 118.617 107.021 114.819 110.819C111.021 114.617 105.871 116.75 100.5 116.75H46.5C41.1294 116.75 35.9787 114.617 32.1811 110.819C28.3835 107.021 26.25 101.871 26.25 96.5V42.5ZM69.1395 49.952C69.7732 49.3183 70.1293 48.4587 70.1293 47.5625C70.1293 46.6663 69.7732 45.8067 69.1395 45.173C68.5058 44.5393 67.6462 44.1832 66.75 44.1832C65.8538 44.1832 64.9942 44.5393 64.3605 45.173L54.8295 54.704L52.1497 52.2605C51.4839 51.6914 50.6229 51.4034 49.7487 51.4575C48.8745 51.5115 48.0555 51.9033 47.4648 52.5501C46.8741 53.1968 46.558 54.0479 46.5833 54.9234C46.6086 55.799 46.9732 56.6304 47.6003 57.242L52.6628 61.8658C53.3042 62.4498 54.1459 62.7643 55.0131 62.7442C55.8804 62.7241 56.7066 62.3709 57.3203 61.7577L69.1395 49.952ZM69.1395 78.923C68.826 78.6087 68.4536 78.3593 68.0435 78.1892C67.6335 78.019 67.1939 77.9315 66.75 77.9315C66.3061 77.9315 65.8665 78.019 65.4565 78.1892C65.0464 78.3593 64.674 78.6087 64.3605 78.923L54.8295 88.454L52.1497 86.0105C51.4839 85.4414 50.6229 85.1534 49.7487 85.2075C48.8745 85.2615 48.0555 85.6533 47.4648 86.3001C46.8741 86.9468 46.558 87.7979 46.5833 88.6734C46.6086 89.549 46.9732 90.3804 47.6003 90.992L52.6628 95.6158C53.3033 96.2006 54.1445 96.5164 55.0118 96.4976C55.879 96.4787 56.7057 96.1267 57.3203 95.5145L69.1327 83.702C69.7655 83.0691 70.1209 82.2108 70.1209 81.3159C70.1209 80.4209 69.7655 79.5627 69.1327 78.9298M80.25 83C79.3549 83 78.4964 83.3556 77.8635 83.9885C77.2306 84.6214 76.875 85.4799 76.875 86.375C76.875 87.2701 77.2306 88.1286 77.8635 88.7615C78.4964 89.3944 79.3549 89.75 80.25 89.75H97.125C98.0201 89.75 98.8786 89.3944 99.5115 88.7615C100.144 88.1286 100.5 87.2701 100.5 86.375C100.5 85.4799 100.144 84.6214 99.5115 83.9885C98.8786 83.3556 98.0201 83 97.125 83H80.25ZM76.875 52.625C76.875 53.5201 77.2306 54.3785 77.8635 55.0115C78.4964 55.6444 79.3549 56 80.25 56H97.125C98.0201 56 98.8786 55.6444 99.5115 55.0115C100.144 54.3785 100.5 53.5201 100.5 52.625C100.5 51.7299 100.144 50.8715 99.5115 50.2385C98.8786 49.6056 98.0201 49.25 97.125 49.25H80.25C79.3549 49.25 78.4964 49.6056 77.8635 50.2385C77.2306 50.8715 76.875 51.7299 76.875 52.625Z" fill="#6466F1"/>
</g>
<defs>
<filter id="filter0_d_45_2" x="0.7" y="0.7" width="145.6" height="145.6" filterUnits="userSpaceOnUse" color-interpolation-filters="sRGB">
<feFlood flood-opacity="0" result="BackgroundImageFix"/>
<feColorMatrix in="SourceAlpha" type="matrix" values="0 0 0 0 0 0 0 0 0 0 0 0 0 0 0 0 0 0 127 0" result="hardAlpha"/>
<feMorphology radius="3" operator="erode" in="SourceAlpha" result="effect1_dropShadow_45_2"/>
<feOffset dy="4"/>
<feGaussianBlur stdDeviation="4.15"/>
<feComposite in2="hardAlpha" operator="out"/>
<feColorMatrix type="matrix" values="0 0 0 0 0 0 0 0 0 0 0 0 0 0 0 0 0 0 0.25 0"/>
<feBlend mode="normal" in2="BackgroundImageFix" result="effect1_dropShadow_45_2"/>
<feBlend mode="normal" in="SourceGraphic" in2="effect1_dropShadow_45_2" result="shape"/>
</filter>
</defs>
</svg>
